# xmcd CD database file
#
# Track frame offsets:
#	150
#	18484
#	38551
#	64678
#	84290
#	103447
#	123592
#
# Disc length: 1889 seconds
#
# Revision: 0
# Processed by: cddbd v1.5.2PL0 Copyright (c) Steve Scherf et al.
# Submitted via: CDex 1.70beta2
#
DISCID=55075f07
DTITLE=Peach - Live From Riverside
DYEAR=1900
DGENRE=Blues
TTITLE0=Muddy Water
TTITLE1=Struttin' Joey "D"
TTITLE2=The Cure For You
TTITLE3=On My Way Home
TTITLE4=Dance With Me Henry
TTITLE5=Never Make Your Move Too Soon
TTITLE6=I Can't Stand The Rain
EXTD=
EXTT0=
EXTT1=
EXTT2=
EXTT3=
EXTT4=
EXTT5=
EXTT6=
PLAYORDER=
